<?xml version="1.0" encoding="UTF-8"?>
<svg id="Layer_1" data-name="Layer 1" xmlns="http://www.w3.org/2000/svg" version="1.1" viewBox="0 0 1200 1200">
  <defs>
    <style>
      .cls-1 {
        fill: #000;
        stroke-width: 0px;
      }
    </style>
  </defs>
  <path class="cls-1" d="M1006.7,86.1H193.3c-4.9,0-9,4.1-9,9v1009.8c0,4.9,4.1,9,9,9h813.4c4.9,0,9-4.1,9-9V95.1c0-4.9-4.1-9-9-9h0ZM955.7,1045.6h-73.2v-73.2h73.2v73.2ZM882.5,154.4h73.2v73.2h-73.2v-73.2ZM955.7,363.9h-73.2v-73.2h73.2v73.2ZM955.7,500.2h-73.2v-73.2h73.2v73.2ZM955.7,636.6h-73.2v-73.2h73.2v73.2ZM955.7,772.9h-73.2v-73.2h73.2v73.2ZM955.7,836.1v73.1h-73.2v-73.1h73.2ZM822.5,590.9h-444.9V104.1h444.9v486.9h0ZM317.5,1045.6h-73.2v-73.2h73.2v73.2ZM244.3,154.4h73.2v73.2h-73.2v-73.2ZM317.5,363.9h-73.2v-73.2h73.2v73.2ZM317.5,500.2h-73.2v-73.2h73.2v73.2ZM317.5,636.6h-73.2v-73.2h73.2v73.2ZM317.5,772.9h-73.2v-73.2h73.2v73.2ZM317.5,836.1v73.1h-73.2v-73.1h73.2ZM377.5,608.9h444.9v486.9h-444.9v-486.9Z"/>
</svg>