<?xml version="1.0" encoding="UTF-8"?>
<svg id="svg3705" xmlns="http://www.w3.org/2000/svg" viewBox="0 0 563.17 356.35">
  <defs>
    <style>
      .cls-1 {
        fill: #0e3fa9;
      }

      .cls-1, .cls-2 {
        stroke-width: 0px;
      }

      .cls-2 {
        fill: #ffa903;
      }

      .cls-3 {
        fill: #fff;
        font-family: Blockletter, Blockletter;
        font-size: 84px;
      }
    </style>
  </defs>
  <g id="layer1">
    <g id="g4700">
      <g id="g4521">
        <path id="path4523" class="cls-1" d="M46.96,355.6c0-.41-.43-3.22-.95-6.25-.52-3.03-3.25-19-6.07-35.5s-5.54-32.75-6.03-36.1-1.16-6.79-1.48-7.63c-.43-1.12,1.11-2.32,5.79-4.51,17.32-8.1,28.15-28.12,24.86-45.95-3.52-19.12-17.07-32.13-35.99-34.57-4.19-.54-8.09-1.1-8.67-1.25s-1.86-4.71-2.86-10.13c-1-5.42-3.11-16.61-4.7-24.86-1.59-8.25-3.83-19.95-4.97-26s-2.95-15.25-4-20.45c-1.96-9.7-2.37-14.05-1.31-14.05.33,0,6.74-1.11,14.25-2.46,13.44-2.43,44.4-7.8,55.15-9.57,3.02-.5,11.8-2.04,19.5-3.43,16.72-3.02,52.78-9.3,60.5-10.55,3.02-.49,7.97-1.34,11-1.89s10.67-1.91,17-3.03c24.92-4.38,46.03-8.07,57-9.98,26.54-4.62,38.33-6.69,57.5-10.12,6.6-1.18,14.48-2.53,17.5-2.99s9.44-1.55,14.25-2.41,12.69-2.26,17.5-3.11,12.58-2.22,17.25-3.04,12.33-2.19,17-3.02,10.98-1.91,14-2.39,9.55-1.59,14.5-2.48,15.53-2.75,23.5-4.16,19.45-3.44,25.5-4.53,13.47-2.37,16.5-2.84c5.57-.88,24.9-4.36,32.83-5.91,3.95-.77,4.42-.65,5.38,1.46.58,1.27,2.1,2.57,3.38,2.89,1.76.44,2.48,1.5,2.93,4.33,1.15,7.26,2.73,12.12,4.1,12.65.76.29,1.39,1.69,1.39,3.1,0,3.72,3.32,9.64,6.88,12.26,3.57,2.63,9.47,11.35,13,19.24,2,4.47,2.48,7.2,2.54,14.59.05,6.02.53,9.64,1.42,10.71.74.89,1.51,4.35,1.72,7.69.48,7.57,2.34,14.01,4.07,14.01,2,0,3.43,3.5,2.77,6.8-.39,1.95-.01,3.85,1.11,5.56,1.49,2.28,1.55,3.26.49,7.87-.67,2.9-2.44,7.56-3.92,10.36-2.5,4.72-2.61,5.37-1.4,8.85.94,2.71,1.01,4.3.25,5.72-.75,1.4-.72,2.36.09,3.35.8.97,1.15,10.24,1.16,31.03.02,32.15-.38,29.38,6.38,44.49,2.27,5.08,3.49,9.48,3.73,13.5.2,3.28,1.05,7.32,1.91,8.97,1.43,2.77,1.4,3.23-.31,6-1.02,1.65-1.86,4.66-1.86,6.68,0,3.96-.24,4.13-7.51,5.28-3.86.61-15.66,2.8-43,7.97-7.15,1.35-22.45,4.1-34,6.1-39.23,6.81-47.99,8.33-60,10.47-6.6,1.17-14.48,2.52-17.5,3-3.02.48-9.33,1.55-14,2.39-33.59,6.02-59.59,10.59-66,11.61-3.02.48-9.33,1.56-14,2.4s-17.5,3.08-28.5,4.99-28.1,4.88-38,6.63-20.48,3.56-23.5,4.04-13.38,2.27-23,3.98c-32.24,5.73-51.46,9.09-57,9.97-3.02.48-9.55,1.59-14.5,2.48s-13.95,2.47-20,3.53-15.05,2.64-20,3.52c-9.46,1.68-31.82,5.48-32.25,5.48-.14,0-.25-.33-.26-.75h0Z"/>
      </g>
      <g id="g4695">
        <polygon id="rect4604" class="cls-2" points="54.91 101.27 517.23 20.21 518.07 25.13 55.75 106.2 54.91 101.27"/>
        <polygon id="rect4606" class="cls-2" points="58.71 101.54 97.37 324.35 92.44 323.95 53.78 101.15 58.71 101.54"/>
        <polygon id="rect4657" class="cls-2" points="96.51 319.43 558.83 238.36 559.68 243.29 97.35 324.36 96.51 319.43"/>
      </g>
    </g>
  </g>
  <text class="cls-3" transform="translate(251.94 161.58) rotate(-9.82)"><tspan x="0" y="0">Not</tspan></text>
  <text class="cls-3" transform="translate(223.63 250.54) rotate(-9.82)"><tspan x="0" y="0">found</tspan></text>
</svg>