<?xml version="1.0" encoding="UTF-8"?>
<svg id="svg3705" xmlns="http://www.w3.org/2000/svg" version="1.1" viewBox="0 0 563.2 356.4">
  <defs>
    <style>
      .cls-1 {
        fill: #fff;
        font-size: 28px;
      }

      .cls-1, .cls-2, .cls-3, .cls-4, .cls-5, .cls-6 {
        isolation: isolate;
      }

      .cls-1, .cls-2, .cls-5 {
        font-family: TrajanPro-Bold, 'Trajan Pro';
        font-weight: 700;
      }

      .cls-2 {
        font-size: 61.8px;
      }

      .cls-2, .cls-7, .cls-5 {
        fill: #21de97;
      }

      .cls-8 {
        fill: none;
      }

      .cls-8, .cls-7 {
        stroke: #333;
        stroke-miterlimit: 10;
      }

      .cls-3 {
        fill: #0e3fa9;
        font-family: Blockletter, Blockletter;
        font-size: 84px;
      }

      .cls-4 {
        display: none;
      }

      .cls-5 {
        font-size: 60px;
      }
    </style>
  </defs>
  <g id="layer1">
    <g id="g4700">
      <g id="g4521">
        <path id="path4523" class="cls-8" d="M47,355.6c0-.4-.4-3.2-1-6.2s-3.2-19-6.1-35.5-5.5-32.8-6-36.1-1.2-6.8-1.5-7.6c-.4-1.1,1.1-2.3,5.8-4.5,17.3-8.1,28.2-28.1,24.9-45.9-3.5-19.1-17.1-32.1-36-34.6-4.2-.5-8.1-1.1-8.7-1.2s-1.9-4.7-2.9-10.1c-1-5.4-3.1-16.6-4.7-24.9s-3.8-19.9-5-26-3-15.2-4-20.4c-2-9.7-2.4-14.1-1.3-14.1s6.7-1.1,14.2-2.5c13.4-2.4,44.4-7.8,55.2-9.6,3-.5,11.8-2,19.5-3.4,16.7-3,52.8-9.3,60.5-10.5,3-.5,8-1.3,11-1.9s10.7-1.9,17-3c24.9-4.4,46-8.1,57-10,26.5-4.6,38.3-6.7,57.5-10.1,6.6-1.2,14.5-2.5,17.5-3s9.4-1.5,14.2-2.4,12.7-2.3,17.5-3.1,12.6-2.2,17.2-3,12.3-2.2,17-3,11-1.9,14-2.4,9.5-1.6,14.5-2.5,15.5-2.8,23.5-4.2,19.5-3.4,25.5-4.5,13.5-2.4,16.5-2.8c5.6-.9,24.9-4.4,32.8-5.9,4-.8,4.4-.6,5.4,1.5.6,1.3,2.1,2.6,3.4,2.9,1.8.4,2.5,1.5,2.9,4.3,1.2,7.3,2.7,12.1,4.1,12.6.8.3,1.4,1.7,1.4,3.1,0,3.7,3.3,9.6,6.9,12.3,3.6,2.6,9.5,11.4,13,19.2,2,4.5,2.5,7.2,2.5,14.6s.5,9.6,1.4,10.7c.7.9,1.5,4.3,1.7,7.7.5,7.6,2.3,14,4.1,14s3.4,3.5,2.8,6.8c-.4,1.9,0,3.8,1.1,5.6,1.5,2.3,1.5,3.3.5,7.9-.7,2.9-2.4,7.6-3.9,10.4-2.5,4.7-2.6,5.4-1.4,8.9.9,2.7,1,4.3.2,5.7s-.7,2.4,0,3.4c.8,1,1.2,10.2,1.2,31,0,32.1-.4,29.4,6.4,44.5,2.3,5.1,3.5,9.5,3.7,13.5.2,3.3,1,7.3,1.9,9,1.4,2.8,1.4,3.2-.3,6-1,1.7-1.9,4.7-1.9,6.7,0,4-.2,4.1-7.5,5.3-3.9.6-15.7,2.8-43,8-7.1,1.4-22.5,4.1-34,6.1-39.2,6.8-48,8.3-60,10.5-6.6,1.2-14.5,2.5-17.5,3s-9.3,1.5-14,2.4c-33.6,6-59.6,10.6-66,11.6-3,.5-9.3,1.6-14,2.4s-17.5,3.1-28.5,5-28.1,4.9-38,6.6-20.5,3.6-23.5,4-13.4,2.3-23,4c-32.2,5.7-51.5,9.1-57,10-3,.5-9.6,1.6-14.5,2.5s-13.9,2.5-20,3.5-15.1,2.6-20,3.5c-9.5,1.7-31.8,5.5-32.2,5.5s-.2-.3-.3-.8h0l.3-.5Z"/>
      </g>
      <g id="g4695">
        <polygon id="rect4604" class="cls-7" points="54.9 101.3 517.2 20.2 518.1 25.1 55.8 106.2 54.9 101.3"/>
        <polygon id="rect4606" class="cls-7" points="58.7 101.5 97.4 324.4 92.4 324 53.8 101.2 58.7 101.5"/>
        <polygon id="rect4657" class="cls-7" points="96.5 319.4 558.8 238.4 559.7 243.3 97.3 324.4 96.5 319.4"/>
      </g>
    </g>
  </g>
  <g class="cls-4">
    <g class="cls-4">
      <text class="cls-3" transform="translate(251.9 161.6) rotate(-9.8)"><tspan x="0" y="0">Not</tspan></text>
    </g>
  </g>
  <g class="cls-4">
    <g class="cls-4">
      <text class="cls-3" transform="translate(223.6 250.5) rotate(-9.8)"><tspan x="0" y="0">found</tspan></text>
    </g>
  </g>
  <g class="cls-6">
    <text class="cls-5" transform="translate(205.8 147.4) rotate(-10.2)"><tspan x="0" y="0">Scene</tspan></text>
  </g>
  <g class="cls-6">
    <text class="cls-1" transform="translate(241 185.3) rotate(-8.5)"><tspan x="0" y="0">was not</tspan></text>
  </g>
  <g class="cls-6">
    <text class="cls-2" transform="translate(204 257.7) rotate(-10.2)"><tspan x="0" y="0">Found</tspan></text>
  </g>
</svg>