<?xml version="1.0" encoding="UTF-8"?>
<svg id="Layer_1" data-name="Layer 1" xmlns="http://www.w3.org/2000/svg" version="1.1" viewBox="0 0 100 100">
  <defs>
    <style>
      .cls-1 {
        stroke-width: .2px;
      }

      .cls-1, .cls-2, .cls-3, .cls-4, .cls-5 {
        stroke: #000;
        stroke-miterlimit: 10;
      }

      .cls-1, .cls-3 {
        fill: #fbffaa;
      }

      .cls-6 {
        stroke-width: 0px;
      }

      .cls-6, .cls-2, .cls-4, .cls-5 {
        fill: #20de96;
      }

      .cls-2 {
        stroke-width: .5px;
      }

      .cls-3, .cls-5 {
        stroke-width: .8px;
      }
    </style>
  </defs>
  <path class="cls-4" d="M89,58.1c0,1.3-.8,2.4-2.1,2.8l-13.7,3.9v1c0,.8-.3,1.5-.9,2.1s-1.3.9-2.1.9c-1.3,0-2.5-.9-2.8-2.1l-22.1,7.1v9.7c0,.8-.3,1.5-.9,2.1-.6.6-1.3.9-2.1.9-1.6,0-3-1.3-3-3v-2.5c0-.8-.7-1.5-1.5-1.5h-.4c-.8,0-1.5.7-1.5,1.5v9.5c0,.8-.3,1.6-.9,2.1-.5.5-1.3.9-2.1.9-1.6,0-3-1.3-3-3v-11.8l-10.3,3.3c-.7.2-1.4.3-2.1.3-1.6,0-3.1-.5-4.2-1.6-.4-.4-.8-.8-1.1-1.3-.1-.1-.3-.2-.4-.4-.9-1-1-2.4-.4-3.5l30.3-58.4c-.7-1-.8-2.4-.2-3.6l2.5-4.8c.4-.9,1.2-1.5,2.2-1.8.9-.3,1.9-.2,2.7.3,18.4,10.3,32.4,26.9,39.6,46.8,0,.1.1.2.2.4.3,1.4.5,2.7.5,3.9h0Z"/>
  <path class="cls-1" d="M65.1,23.9c-2.6-2.6-5.5-5-8.4-7.2-.3-.2-.8-.2-1,.1-.2.3-.2.8.1,1,2.9,2.2,5.7,4.5,8.3,7.1.1.1.3.2.5.2s.4,0,.5-.2c.3-.3.3-.7,0-1h0Z"/>
  <path class="cls-6" d="M54.6,15.3c-.3-.3-.8-.3-1.1,0-.3.3-.3.8,0,1.1.3.3.8.3,1.1,0,.3-.3.3-.8,0-1.1Z"/>
  <path class="cls-1" d="M49.6,13.6c.5.3,1.1.7,1.6,1,.1,0,.2.1.4.1.2,0,.5-.1.6-.3.2-.3.1-.8-.2-1-.5-.4-1.1-.7-1.6-1-.3-.2-.8-.1-1,.2-.2.3-.1.8.2,1h0Z"/>
  <path class="cls-3" d="M71.7,60.9c0,0,0-.1,0-.2,0,0,0,0,0,0,0,0,0-.1.1-.2,0,0,.1-.1.2-.2,0,0,.1,0,.2-.1,0,0,0,0,0,0l4.6-1.5c-.1-.2-.2-.4-.3-.6-6.1-16.9-18-31.1-33.7-40,0,0,0,0-.1,0l-30,58c-.4.7-.1,1.5.2,1.9,0,.1.2.2.3.2,0,0,0,0,0,0,.4.3.9.4,1.5.2l15.7-5s0,0,0,0,0,0,0,0c0,0,.1,0,.2,0s0,0,.1,0h0s0,0,0,0c0,0,.1,0,.2.1,0,0,.1,0,.1.1h0s0,0,0,0c0,0,0,0,0,.1,0,0,0,0,0,0h0c0,0,0,.2,0,.2v16.2c0,.8.6,1.5,1.5,1.5s.8-.2,1-.4c.3-.3.4-.6.4-1v-9.5c0-1.6,1.3-3,3-3h.4c1.6,0,3,1.3,3,3v2.5c0,.8.7,1.5,1.5,1.5s.8-.2,1-.4c.3-.3.4-.6.4-1v-13.6c0,0,0-.2,0-.2,0,0,0-.1,0-.2,0,0,0,0,.1-.1,0,0,0,0,0,0,0,0,0,0,.1,0,0,0,0,0,0,0h0s23.4-7.4,23.4-7.4c0,0,.2,0,.3,0h0c0,0,.1,0,.2,0,0,0,0,0,0,0,0,0,.1,0,.1,0,0,0,.1,0,.1.1h0s0,0,0,0c0,0,0,0,0,.1,0,0,0,0,0,0h0c0,0,0,.2,0,.2v3.5c0,.8.7,1.5,1.5,1.5s.8-.1,1-.4c.3-.3.4-.6.4-1v-4.9Z"/>
  <path class="cls-4" d="M53,53.1c-.9.3-1.9.4-2.8.4-3.9,0-7.6-2.5-8.8-6.4-.7-2.4-.5-4.9.6-7.1,1.1-2.2,3.1-3.8,5.4-4.6,4.9-1.5,10.1,1.1,11.6,6,1.5,4.9-1.1,10.1-6,11.6h0Z"/>
  <path class="cls-5" d="M41.2,56.4c-1.2-.6-2.6-.8-3.9-.3-2.7.9-4.2,3.7-3.3,6.4.7,2.2,2.7,3.6,4.9,3.6s1,0,1.5-.2c1.3-.4,2.4-1.3,3-2.5.6-1.2.7-2.6.3-3.9-.4-1.3-1.3-2.4-2.5-3h0Z"/>
  <path class="cls-2" d="M57.7,55.6c-.4.2-.5.6-.3,1s.6.5,1,.3c.1,0,2.7-1.2,4.7,1.4.1.2.4.3.6.3s.3,0,.5-.2c.3-.3.4-.7.1-1.1-2.2-2.9-5.3-2.5-6.6-1.9h0Z"/>
  <path class="cls-2" d="M25,63.7c-.4.2-.6.6-.4,1,0,.1,1,2.8-1.8,4.6-.3.2-.4.7-.2,1,.1.2.4.3.6.3s.3,0,.4-.1c3.1-2,2.9-5.1,2.4-6.4-.2-.4-.6-.6-1-.4h0Z"/>
  <path class="cls-5" d="M45.4,31c1.8,0,3.2-1.4,3.2-3.2s-1.4-3.2-3.2-3.2-3.2,1.4-3.2,3.2,1.4,3.2,3.2,3.2Z"/>
  <path class="cls-5" d="M37,48c0-1.8-1.5-3.3-3.3-3.3s-3.3,1.5-3.3,3.3,1.5,3.3,3.3,3.3,3.3-1.5,3.3-3.3Z"/>
</svg>